<?xml version="1.0" encoding="UTF-8" standalone="no"?>
<svg width="140px" height="140px" viewBox="0 0 140 140" version="1.1" xmlns="http://www.w3.org/2000/svg" xmlns:xlink="http://www.w3.org/1999/xlink">
    <!-- Generator: Sketch 41 (35326) - http://www.bohemiancoding.com/sketch -->
    <title>icon-approved</title>
    <desc>Created with Sketch.</desc>
    <defs></defs>
    <g id="Whitelisting" stroke="none" stroke-width="1" fill="none" fill-rule="evenodd">
        <g id="whitelisting-approved" transform="translate(-643.000000, -325.000000)">
            <g id="icon-approved" transform="translate(643.000000, 325.000000)">
                <g id="Group" fill="#141414">
                    <g id="Shape">
                        <path d="M70,0.4 C31.622781,0.4 0.4,31.622781 0.4,70 C0.4,108.377219 31.622781,139.6 70,139.6 C85.3208381,139.6 99.8595048,134.705905 112.04061,125.448 C113.498895,124.341029 113.781714,122.261867 112.674743,120.803581 C111.567771,119.345295 109.48419,119.062476 108.030324,120.169448 C97.0114286,128.543543 83.8581333,132.971429 70,132.971429 C35.2773333,132.971429 7.02857143,104.722667 7.02857143,70 C7.02857143,35.2773333 35.2773333,7.02857143 70,7.02857143 C104.722667,7.02857143 132.971429,35.2773333 132.971429,70 C132.971429,81.7082667 129.71901,93.1381333 123.569905,103.052267 C122.604343,104.607771 123.0816,106.651581 124.637105,107.614933 C126.19261,108.582705 128.238629,108.103238 129.199771,106.547733 C136.005105,95.5796571 139.6,82.941181 139.6,70 C139.6,31.622781 108.377219,0.4 70,0.4 Z"></path>
                        <path d="M123.276038,109.512914 C121.850895,108.361752 119.762895,108.582705 118.616152,110.010057 C117.363352,111.563352 115.944838,113.118857 114.40701,114.6368 C113.10339,115.920533 113.085714,118.017371 114.371657,119.3232 C115.019048,119.981638 115.876343,120.310857 116.731429,120.310857 C117.571048,120.310857 118.412876,119.992686 119.058057,119.356343 C120.774857,117.663848 122.361295,115.920533 123.773181,114.1728 C124.922133,112.749867 124.701181,110.661867 123.276038,109.512914 Z"></path>
                        <path d="M35.0784762,98.8828952 C33.8985905,97.4842667 31.808381,97.3075048 30.4075429,98.4896 C29.0089143,99.6694857 28.8343619,101.761905 30.0164571,103.158324 C31.5100952,104.928152 33.1407238,106.636114 34.8641524,108.240229 C35.5027048,108.8368 36.3136,109.128457 37.1200762,109.128457 C38.0083048,109.128457 38.8943238,108.774933 39.5461333,108.072305 C40.7923048,106.733333 40.7193905,104.634286 39.3782095,103.388114 C37.8514286,101.96739 36.4041905,100.449448 35.0784762,98.8828952 Z"></path>
                        <path d="M42.4538667,114.038019 C50.6777143,119.197257 60.2029714,121.92381 70,121.92381 C98.6310095,121.92381 121.92381,98.6310095 121.92381,70 C121.92381,60.2029714 119.197257,50.6777143 114.038019,42.4538667 C113.068038,40.902781 111.0176,40.4321524 109.470933,41.4065524 C107.919848,42.3787429 107.451429,44.4247619 108.423619,45.9736381 C112.92,53.1435429 115.295238,61.4513524 115.295238,70 C115.295238,94.9764571 94.9764571,115.295238 70,115.295238 C61.4513524,115.295238 53.1435429,112.92 45.9758476,108.423619 C44.4247619,107.451429 42.3809524,107.917638 41.4087619,109.470933 C40.4343619,111.0176 40.902781,113.063619 42.4538667,114.038019 Z"></path>
                        <path d="M91.9847619,30.3832381 C93.575619,31.2692571 95.6017524,30.7014095 96.4921905,29.0995048 C97.3826286,27.4976 96.8081524,25.4803048 95.2084571,24.5898667 C87.5524571,20.3299048 78.8358857,18.0761905 70,18.0761905 C41.3689905,18.0761905 18.0761905,41.3689905 18.0761905,70 C18.0761905,78.8358857 20.3299048,87.5524571 24.5920762,95.2084571 C25.1974857,96.2977524 26.3265524,96.912 27.4909714,96.912 C28.0367238,96.912 28.5891048,96.777219 29.1017143,96.4944 C30.7014095,95.6039619 31.2736762,93.5866667 30.3854476,91.9869714 C26.6690286,85.3142095 24.7069714,77.7112381 24.7069714,70.0022095 C24.7069714,45.0257524 45.0257524,24.7069714 70.0022095,24.7069714 C77.7090286,24.7047619 85.3142095,26.6690286 91.9847619,30.3832381 Z"></path>
                        <path d="M103.390324,39.380419 C104.042133,40.0808381 104.928152,40.4365714 105.816381,40.4365714 C106.625067,40.4365714 107.435962,40.1427048 108.074514,39.5483429 C109.413486,38.3021714 109.48861,36.2031238 108.240229,34.8641524 C106.636114,33.1407238 104.928152,31.5100952 103.158324,30.0164571 C101.759695,28.8343619 99.6694857,29.0111238 98.4896,30.4075429 C97.3075048,31.8061714 97.4842667,33.896381 98.8828952,35.0784762 C100.449448,36.4041905 101.96739,37.8514286 103.390324,39.380419 Z"></path>
                    </g>
                </g>
                <path d="M63.5605767,80.5005285 C62.3795961,81.6685313 60.461399,81.6651199 59.2937551,80.5103072 L50.4840227,71.7973851 C49.3085028,70.6347829 47.3997104,70.6376491 46.2288153,71.7956772 L46.1267403,71.8966305 C44.952174,73.0582894 44.9615108,74.9509448 46.1363064,76.1128305 L59.2859158,89.1179387 C60.4657653,90.2848228 62.3825908,90.2809542 63.549934,89.1264389 L96.6278438,56.4120226 C97.8029466,55.2498331 97.7997104,53.3623509 96.6288153,52.2043228 L96.5267403,52.1033695 C95.352174,50.9417106 93.4486042,50.9409409 92.2616455,52.1148561 L63.5605767,80.5005285 Z" id="Shape" fill="#258C42"></path>
            </g>
        </g>
    </g>
</svg>