<?xml version="1.0" encoding="UTF-8" standalone="no"?>
<svg width="75px" height="155px" viewBox="0 0 75 155" version="1.1" xmlns="http://www.w3.org/2000/svg" xmlns:xlink="http://www.w3.org/1999/xlink">
    <!-- Generator: Sketch 41 (35326) - http://www.bohemiancoding.com/sketch -->
    <title>icon-traffic</title>
    <desc>Created with Sketch.</desc>
    <defs>
        <circle id="path-1" cx="37.5" cy="52.5" r="12.5"></circle>
        <mask id="mask-2" maskContentUnits="userSpaceOnUse" maskUnits="objectBoundingBox" x="0" y="0" width="25" height="25" fill="white">
            <use xlink:href="#path-1"></use>
        </mask>
    </defs>
    <g id="Whitelisting" stroke="none" stroke-width="1" fill="none" fill-rule="evenodd">
        <g id="whitelisting-recieved" transform="translate(-678.000000, -326.000000)">
            <g id="icon-traffic" transform="translate(678.000000, 326.000000)">
                <g id="Group" fill="#141414">
                    <g id="Shape">
                        <path d="M37.5,10 C30.6075,10 25,15.6075 25,22.5 C25,29.3925 30.6075,35 37.5,35 C44.3925,35 50,29.3925 50,22.5 C50,15.6075 44.3925,10 37.5,10 Z M37.5,30 C33.365,30 30,26.635 30,22.5 C30,18.365 33.365,15 37.5,15 C41.635,15 45,18.365 45,22.5 C45,26.635 41.635,30 37.5,30 Z"></path>
                        <path d="M37.5,70 C30.6075,70 25,75.6075 25,82.5 C25,89.3925 30.6075,95 37.5,95 C44.3925,95 50,89.3925 50,82.5 C50,75.6075 44.3925,70 37.5,70 Z M37.5,90 C33.365,90 30,86.635 30,82.5 C30,78.365 33.365,75 37.5,75 C41.635,75 45,78.365 45,82.5 C45,86.635 41.635,90 37.5,90 Z"></path>
                        <path d="M69.3025,35 L75,17.905 L75,10 L65,10 L65,7.5 C65,3.365 61.635,0 57.5,0 L17.5,0 C13.365,0 10,3.365 10,7.5 L10,10 L0,10 L0,17.905 L5.6975,35 L10,35 L10,40 L0,40 L0,47.905 L5.6975,65 L10,65 L10,70 L0,70 L0,77.905 L5.6975,95 L10,95 L10,97.5 C10,101.635 13.365,105 17.5,105 L27.5,105 L27.5,155 L32.5,155 L32.5,115 L42.5,115 L42.5,155 L47.5,155 L47.5,105 L57.5,105 C61.635,105 65,101.635 65,97.5 L65,95 L69.3025,95 L75,77.905 L75,70 L65,70 L65,65 L69.3025,65 L75,47.905 L75,40 L65,40 L65,35 L69.3025,35 Z M70,15 L70,17.095 L65.6975,30 L65,30 L65,15 L70,15 Z M9.3025,30 L5,17.095 L5,15 L10,15 L10,30 L9.3025,30 Z M9.3025,60 L5,47.095 L5,45 L10,45 L10,60 L9.3025,60 Z M9.3025,90 L5,77.095 L5,75 L10,75 L10,90 L9.3025,90 Z M42.5,110 L32.5,110 L32.5,105 L42.5,105 L42.5,110 Z M57.5,100 L17.5,100 C16.1225,100 15,98.88 15,97.5 L15,90 L20,90 L20,85 L15,85 L15,80 L20,80 L20,75 L15,75 L15,60 L20,60 L20,55 L15,55 L15,50 L20,50 L20,45 L15,45 L15,30 L20,30 L20,25 L15,25 L15,20 L20,20 L20,15 L15,15 L15,7.5 C15,6.1225 16.1225,5 17.5,5 L57.5,5 C58.8775,5 60,6.1225 60,7.5 L60,15 L55,15 L55,20 L60,20 L60,25 L55,25 L55,30 L60,30 L60,45 L55,45 L55,50 L60,50 L60,55 L55,55 L55,60 L60,60 L60,75 L55,75 L55,80 L60,80 L60,85 L55,85 L55,90 L60,90 L60,97.5 C60,98.88 58.8775,100 57.5,100 Z M70,75 L70,77.095 L65.6975,90 L65,90 L65,75 L70,75 Z M70,45 L70,47.095 L65.6975,60 L65,60 L65,45 L70,45 Z"></path>
                    </g>
                </g>
                <use id="Oval" stroke="#141414" mask="url(#mask-2)" stroke-width="10" fill="#F6A623" xlink:href="#path-1"></use>
            </g>
        </g>
    </g>
</svg>